<svg width="394" height="72" viewBox="0 0 394 72" fill="none" xmlns="http://www.w3.org/2000/svg">
<path d="M26.7 60C26.3 60 26.02 59.82 25.86 59.46L18.36 42.84C18.28 42.68 18.16 42.6 18 42.6H12.42C12.22 42.6 12.12 42.7 12.12 42.9V59.28C12.12 59.48 12.04 59.66 11.88 59.82C11.76 59.94 11.6 60 11.4 60H4.38C4.18 60 4 59.94 3.84 59.82C3.72 59.66 3.66 59.48 3.66 59.28V18.72C3.66 18.52 3.72 18.36 3.84 18.24C4 18.08 4.18 18 4.38 18H21.54C24.1 18 26.34 18.52 28.26 19.56C30.22 20.6 31.72 22.08 32.76 24C33.84 25.92 34.38 28.14 34.38 30.66C34.38 33.38 33.7 35.72 32.34 37.68C30.98 39.6 29.08 40.96 26.64 41.76C26.44 41.84 26.38 41.98 26.46 42.18L34.62 59.16C34.7 59.32 34.74 59.44 34.74 59.52C34.74 59.84 34.52 60 34.08 60H26.7ZM12.42 25.26C12.22 25.26 12.12 25.36 12.12 25.56V35.82C12.12 36.02 12.22 36.12 12.42 36.12H20.28C21.96 36.12 23.32 35.62 24.36 34.62C25.44 33.62 25.98 32.32 25.98 30.72C25.98 29.12 25.44 27.82 24.36 26.82C23.32 25.78 21.96 25.26 20.28 25.26H12.42ZM66.8653 41.4C67.1053 42.92 67.1853 44.62 67.1053 46.5C67.0653 46.98 66.8053 47.22 66.3253 47.22H47.7853C47.5453 47.22 47.4653 47.32 47.5453 47.52C47.6653 48.32 47.8853 49.12 48.2053 49.92C49.2453 52.16 51.3653 53.28 54.5653 53.28C57.1253 53.24 59.1453 52.2 60.6253 50.16C60.7853 49.92 60.9653 49.8 61.1653 49.8C61.2853 49.8 61.4253 49.88 61.5853 50.04L65.9053 54.3C66.1053 54.5 66.2053 54.68 66.2053 54.84C66.2053 54.92 66.1253 55.08 65.9653 55.32C64.6453 56.96 62.9453 58.24 60.8653 59.16C58.7853 60.04 56.5053 60.48 54.0253 60.48C50.5853 60.48 47.6653 59.7 45.2653 58.14C42.9053 56.58 41.2053 54.4 40.1653 51.6C39.3253 49.6 38.9053 46.98 38.9053 43.74C38.9053 41.54 39.2053 39.6 39.8053 37.92C40.7253 35.08 42.3253 32.82 44.6053 31.14C46.9253 29.46 49.6653 28.62 52.8253 28.62C56.8253 28.62 60.0253 29.78 62.4253 32.1C64.8653 34.42 66.3453 37.52 66.8653 41.4ZM52.8853 35.94C50.3653 35.94 48.7053 37.12 47.9053 39.48C47.7453 40 47.6053 40.64 47.4853 41.4C47.4853 41.6 47.5853 41.7 47.7853 41.7H58.1653C58.4053 41.7 58.4853 41.6 58.4053 41.4C58.2053 40.24 58.1053 39.68 58.1053 39.72C57.7453 38.52 57.1053 37.6 56.1853 36.96C55.3053 36.28 54.2053 35.94 52.8853 35.94ZM91.1592 29.88C91.1592 29.68 91.2192 29.52 91.3392 29.4C91.4992 29.24 91.6792 29.16 91.8792 29.16H98.8992C99.0992 29.16 99.2592 29.24 99.3792 29.4C99.5392 29.52 99.6192 29.68 99.6192 29.88V57.24C99.6192 62.48 98.0992 66.22 95.0592 68.46C92.0592 70.7 88.1792 71.82 83.4192 71.82C82.0192 71.82 80.4592 71.72 78.7392 71.52C78.3392 71.48 78.1392 71.22 78.1392 70.74L78.3792 64.56C78.3792 64.04 78.6592 63.82 79.2192 63.9C80.6592 64.14 81.9792 64.26 83.1792 64.26C85.7392 64.26 87.6992 63.7 89.0592 62.58C90.4592 61.46 91.1592 59.66 91.1592 57.18C91.1592 57.06 91.1192 57 91.0392 57C90.9592 56.96 90.8792 56.98 90.7992 57.06C89.2792 58.7 87.0592 59.52 84.1392 59.52C81.5392 59.52 79.1392 58.9 76.9392 57.66C74.7792 56.38 73.2392 54.34 72.3192 51.54C71.7192 49.7 71.4192 47.32 71.4192 44.4C71.4192 41.28 71.7792 38.74 72.4992 36.78C73.3392 34.34 74.7592 32.38 76.7592 30.9C78.7592 29.42 81.0792 28.68 83.7192 28.68C86.7992 28.68 89.1592 29.6 90.7992 31.44C90.8792 31.52 90.9592 31.56 91.0392 31.56C91.1192 31.52 91.1592 31.44 91.1592 31.32V29.88ZM90.6792 49.26C90.9992 48.06 91.1592 46.42 91.1592 44.34C91.1592 43.1 91.1192 42.14 91.0392 41.46C90.9592 40.78 90.8192 40.14 90.6192 39.54C90.2592 38.46 89.6592 37.6 88.8192 36.96C87.9792 36.28 86.9392 35.94 85.6992 35.94C84.4992 35.94 83.4792 36.28 82.6392 36.96C81.7992 37.6 81.1792 38.46 80.7792 39.54C80.2192 40.74 79.9392 42.36 79.9392 44.4C79.9392 46.64 80.1792 48.24 80.6592 49.2C81.0192 50.28 81.6392 51.16 82.5192 51.84C83.4392 52.48 84.5192 52.8 85.7592 52.8C87.0392 52.8 88.0992 52.48 88.9392 51.84C89.7792 51.16 90.3592 50.3 90.6792 49.26ZM117.959 28.68C120.559 28.68 122.879 29.14 124.919 30.06C126.959 30.94 128.539 32.16 129.659 33.72C130.819 35.28 131.399 37.02 131.399 38.94V59.28C131.399 59.48 131.319 59.66 131.159 59.82C131.039 59.94 130.879 60 130.679 60H123.659C123.459 60 123.279 59.94 123.119 59.82C122.999 59.66 122.939 59.48 122.939 59.28V57.3C122.939 57.18 122.899 57.1 122.819 57.06C122.739 57.02 122.659 57.06 122.579 57.18C120.899 59.38 118.199 60.48 114.479 60.48C111.359 60.48 108.839 59.72 106.919 58.2C104.999 56.68 104.039 54.44 104.039 51.48C104.039 48.4 105.119 46.02 107.279 44.34C109.439 42.62 112.519 41.76 116.519 41.76H122.639C122.839 41.76 122.939 41.66 122.939 41.46V40.14C122.939 38.82 122.539 37.8 121.739 37.08C120.939 36.32 119.739 35.94 118.139 35.94C116.899 35.94 115.859 36.16 115.019 36.6C114.219 37.04 113.699 37.66 113.459 38.46C113.339 38.9 113.079 39.1 112.679 39.06L105.419 38.1C104.939 38.02 104.719 37.84 104.759 37.56C104.919 35.88 105.579 34.36 106.739 33C107.939 31.64 109.499 30.58 111.419 29.82C113.379 29.06 115.559 28.68 117.959 28.68ZM116.759 54.18C118.479 54.18 119.939 53.72 121.139 52.8C122.339 51.88 122.939 50.7 122.939 49.26V47.1C122.939 46.9 122.839 46.8 122.639 46.8H118.319C116.519 46.8 115.099 47.14 114.059 47.82C113.059 48.5 112.559 49.46 112.559 50.7C112.559 51.78 112.939 52.64 113.699 53.28C114.459 53.88 115.479 54.18 116.759 54.18ZM138.078 60C137.878 60 137.698 59.94 137.538 59.82C137.418 59.66 137.358 59.48 137.358 59.28V18.72C137.358 18.52 137.418 18.36 137.538 18.24C137.698 18.08 137.878 18 138.078 18H145.098C145.298 18 145.458 18.08 145.578 18.24C145.738 18.36 145.818 18.52 145.818 18.72V59.28C145.818 59.48 145.738 59.66 145.578 59.82C145.458 59.94 145.298 60 145.098 60H138.078ZM165.627 60.48C162.267 60.48 159.387 59.6 156.987 57.84C154.587 56.08 152.947 53.68 152.067 50.64C151.507 48.76 151.227 46.72 151.227 44.52C151.227 42.16 151.507 40.04 152.067 38.16C152.987 35.2 154.647 32.88 157.047 31.2C159.447 29.52 162.327 28.68 165.687 28.68C168.967 28.68 171.767 29.52 174.087 31.2C176.407 32.84 178.047 35.14 179.007 38.1C179.647 40.1 179.967 42.2 179.967 44.4C179.967 46.56 179.687 48.58 179.127 50.46C178.247 53.58 176.607 56.04 174.207 57.84C171.847 59.6 168.987 60.48 165.627 60.48ZM165.627 53.22C166.947 53.22 168.067 52.82 168.987 52.02C169.907 51.22 170.567 50.12 170.967 48.72C171.287 47.44 171.447 46.04 171.447 44.52C171.447 42.84 171.287 41.42 170.967 40.26C170.527 38.9 169.847 37.84 168.927 37.08C168.007 36.32 166.887 35.94 165.567 35.94C164.207 35.94 163.067 36.32 162.147 37.08C161.267 37.84 160.627 38.9 160.227 40.26C159.907 41.22 159.747 42.64 159.747 44.52C159.747 46.32 159.887 47.72 160.167 48.72C160.567 50.12 161.227 51.22 162.147 52.02C163.107 52.82 164.267 53.22 165.627 53.22ZM215.045 23.28C215.045 23.48 214.965 23.66 214.805 23.82C214.685 23.94 214.525 24 214.325 24H193.925C193.725 24 193.625 24.1 193.625 24.3V35.52C193.625 35.72 193.725 35.82 193.925 35.82H207.665C207.865 35.82 208.025 35.9 208.145 36.06C208.305 36.18 208.385 36.34 208.385 36.54V41.1C208.385 41.3 208.305 41.48 208.145 41.64C208.025 41.76 207.865 41.82 207.665 41.82H193.925C193.725 41.82 193.625 41.92 193.625 42.12V59.28C193.625 59.48 193.545 59.66 193.385 59.82C193.265 59.94 193.105 60 192.905 60H187.385C187.185 60 187.005 59.94 186.845 59.82C186.725 59.66 186.665 59.48 186.665 59.28V18.72C186.665 18.52 186.725 18.36 186.845 18.24C187.005 18.08 187.185 18 187.385 18H214.325C214.525 18 214.685 18.08 214.805 18.24C214.965 18.36 215.045 18.52 215.045 18.72V23.28ZM228.936 28.86C231.456 28.86 233.676 29.3 235.596 30.18C237.516 31.06 238.996 32.28 240.036 33.84C241.076 35.36 241.596 37.1 241.596 39.06V59.28C241.596 59.48 241.516 59.66 241.356 59.82C241.236 59.94 241.076 60 240.876 60H235.356C235.156 60 234.976 59.94 234.816 59.82C234.696 59.66 234.636 59.48 234.636 59.28V57.36C234.636 57.24 234.596 57.18 234.516 57.18C234.436 57.14 234.356 57.16 234.276 57.24C232.316 59.4 229.476 60.48 225.756 60.48C222.756 60.48 220.276 59.72 218.316 58.2C216.396 56.68 215.436 54.42 215.436 51.42C215.436 48.3 216.516 45.88 218.676 44.16C220.876 42.4 223.956 41.52 227.916 41.52H234.336C234.536 41.52 234.636 41.42 234.636 41.22V39.78C234.636 38.22 234.176 37.02 233.256 36.18C232.336 35.3 230.956 34.86 229.116 34.86C227.596 34.86 226.356 35.14 225.396 35.7C224.476 36.22 223.896 36.96 223.656 37.92C223.536 38.4 223.256 38.6 222.816 38.52L216.996 37.8C216.796 37.76 216.616 37.7 216.456 37.62C216.336 37.5 216.296 37.36 216.336 37.2C216.656 34.76 217.956 32.76 220.236 31.2C222.556 29.64 225.456 28.86 228.936 28.86ZM227.496 54.96C229.456 54.96 231.136 54.44 232.536 53.4C233.936 52.36 234.636 51.04 234.636 49.44V46.62C234.636 46.42 234.536 46.32 234.336 46.32H229.296C227.176 46.32 225.496 46.72 224.256 47.52C223.056 48.32 222.456 49.46 222.456 50.94C222.456 52.22 222.916 53.22 223.836 53.94C224.796 54.62 226.016 54.96 227.496 54.96ZM281.403 28.86C284.483 28.86 286.883 29.8 288.603 31.68C290.363 33.52 291.243 36.1 291.243 39.42V59.28C291.243 59.48 291.163 59.66 291.003 59.82C290.883 59.94 290.723 60 290.523 60H285.063C284.863 60 284.683 59.94 284.523 59.82C284.403 59.66 284.343 59.48 284.343 59.28V40.86C284.343 39.02 283.843 37.56 282.843 36.48C281.883 35.4 280.583 34.86 278.943 34.86C277.303 34.86 275.963 35.4 274.923 36.48C273.883 37.56 273.363 39 273.363 40.8V59.28C273.363 59.48 273.283 59.66 273.123 59.82C273.003 59.94 272.843 60 272.643 60H267.183C266.983 60 266.803 59.94 266.643 59.82C266.523 59.66 266.463 59.48 266.463 59.28V40.86C266.463 39.02 265.963 37.56 264.963 36.48C263.963 35.4 262.643 34.86 261.003 34.86C259.483 34.86 258.223 35.3 257.223 36.18C256.263 37.06 255.703 38.26 255.543 39.78V59.28C255.543 59.48 255.463 59.66 255.303 59.82C255.183 59.94 255.023 60 254.823 60H249.303C249.103 60 248.923 59.94 248.763 59.82C248.643 59.66 248.583 59.48 248.583 59.28V30.06C248.583 29.86 248.643 29.7 248.763 29.58C248.923 29.42 249.103 29.34 249.303 29.34H254.823C255.023 29.34 255.183 29.42 255.303 29.58C255.463 29.7 255.543 29.86 255.543 30.06V32.04C255.543 32.16 255.583 32.24 255.663 32.28C255.743 32.32 255.823 32.28 255.903 32.16C256.783 31.04 257.863 30.22 259.143 29.7C260.463 29.14 261.923 28.86 263.523 28.86C265.483 28.86 267.203 29.26 268.683 30.06C270.163 30.86 271.303 32.02 272.103 33.54C272.223 33.7 272.363 33.7 272.523 33.54C273.403 31.94 274.623 30.76 276.183 30C277.743 29.24 279.483 28.86 281.403 28.86ZM302.289 25.14C301.049 25.14 300.029 24.74 299.229 23.94C298.429 23.14 298.029 22.12 298.029 20.88C298.029 19.64 298.429 18.62 299.229 17.82C300.029 17.02 301.049 16.62 302.289 16.62C303.529 16.62 304.549 17.02 305.349 17.82C306.149 18.62 306.549 19.64 306.549 20.88C306.549 22.12 306.149 23.14 305.349 23.94C304.549 24.74 303.529 25.14 302.289 25.14ZM299.409 60C299.209 60 299.029 59.94 298.869 59.82C298.749 59.66 298.689 59.48 298.689 59.28V30C298.689 29.8 298.749 29.64 298.869 29.52C299.029 29.36 299.209 29.28 299.409 29.28H304.929C305.129 29.28 305.289 29.36 305.409 29.52C305.569 29.64 305.649 29.8 305.649 30V59.28C305.649 59.48 305.569 59.66 305.409 59.82C305.289 59.94 305.129 60 304.929 60H299.409ZM314.342 60C314.142 60 313.962 59.94 313.802 59.82C313.682 59.66 313.622 59.48 313.622 59.28V18.72C313.622 18.52 313.682 18.36 313.802 18.24C313.962 18.08 314.142 18 314.342 18H319.862C320.062 18 320.222 18.08 320.342 18.24C320.502 18.36 320.582 18.52 320.582 18.72V59.28C320.582 59.48 320.502 59.66 320.342 59.82C320.222 59.94 320.062 60 319.862 60H314.342ZM331.938 25.14C330.698 25.14 329.678 24.74 328.878 23.94C328.078 23.14 327.678 22.12 327.678 20.88C327.678 19.64 328.078 18.62 328.878 17.82C329.678 17.02 330.698 16.62 331.938 16.62C333.178 16.62 334.198 17.02 334.998 17.82C335.798 18.62 336.198 19.64 336.198 20.88C336.198 22.12 335.798 23.14 334.998 23.94C334.198 24.74 333.178 25.14 331.938 25.14ZM329.058 60C328.858 60 328.678 59.94 328.518 59.82C328.398 59.66 328.338 59.48 328.338 59.28V30C328.338 29.8 328.398 29.64 328.518 29.52C328.678 29.36 328.858 29.28 329.058 29.28H334.578C334.778 29.28 334.938 29.36 335.058 29.52C335.218 29.64 335.298 29.8 335.298 30V59.28C335.298 59.48 335.218 59.66 335.058 59.82C334.938 59.94 334.778 60 334.578 60H329.058ZM354.971 28.86C357.491 28.86 359.711 29.3 361.631 30.18C363.551 31.06 365.031 32.28 366.071 33.84C367.111 35.36 367.631 37.1 367.631 39.06V59.28C367.631 59.48 367.551 59.66 367.391 59.82C367.271 59.94 367.111 60 366.911 60H361.391C361.191 60 361.011 59.94 360.851 59.82C360.731 59.66 360.671 59.48 360.671 59.28V57.36C360.671 57.24 360.631 57.18 360.551 57.18C360.471 57.14 360.391 57.16 360.311 57.24C358.351 59.4 355.511 60.48 351.791 60.48C348.791 60.48 346.311 59.72 344.351 58.2C342.431 56.68 341.471 54.42 341.471 51.42C341.471 48.3 342.551 45.88 344.711 44.16C346.911 42.4 349.991 41.52 353.951 41.52H360.371C360.571 41.52 360.671 41.42 360.671 41.22V39.78C360.671 38.22 360.211 37.02 359.291 36.18C358.371 35.3 356.991 34.86 355.151 34.86C353.631 34.86 352.391 35.14 351.431 35.7C350.511 36.22 349.931 36.96 349.691 37.92C349.571 38.4 349.291 38.6 348.851 38.52L343.031 37.8C342.831 37.76 342.651 37.7 342.491 37.62C342.371 37.5 342.331 37.36 342.371 37.2C342.691 34.76 343.991 32.76 346.271 31.2C348.591 29.64 351.491 28.86 354.971 28.86ZM353.531 54.96C355.491 54.96 357.171 54.44 358.571 53.4C359.971 52.36 360.671 51.04 360.671 49.44V46.62C360.671 46.42 360.571 46.32 360.371 46.32H355.331C353.211 46.32 351.531 46.72 350.291 47.52C349.091 48.32 348.491 49.46 348.491 50.94C348.491 52.22 348.951 53.22 349.871 53.94C350.831 54.62 352.051 54.96 353.531 54.96ZM388.898 28.98C390.178 28.98 391.298 29.24 392.258 29.76C392.578 29.92 392.698 30.22 392.618 30.66L391.598 36.06C391.558 36.54 391.278 36.68 390.758 36.48C390.158 36.28 389.458 36.18 388.658 36.18C388.138 36.18 387.738 36.2 387.458 36.24C385.778 36.32 384.378 36.92 383.258 38.04C382.138 39.12 381.578 40.54 381.578 42.3V59.28C381.578 59.48 381.498 59.66 381.338 59.82C381.218 59.94 381.058 60 380.858 60H375.338C375.138 60 374.958 59.94 374.798 59.82C374.678 59.66 374.618 59.48 374.618 59.28V30.06C374.618 29.86 374.678 29.7 374.798 29.58C374.958 29.42 375.138 29.34 375.338 29.34H380.858C381.058 29.34 381.218 29.42 381.338 29.58C381.498 29.7 381.578 29.86 381.578 30.06V32.76C381.578 32.92 381.598 33.02 381.638 33.06C381.718 33.06 381.798 33 381.878 32.88C383.558 30.28 385.898 28.98 388.898 28.98Z" fill="white"/>
</svg>
